<svg width="512" height="512" viewBox="0 0 512 512" fill="none" xmlns="http://www.w3.org/2000/svg">
<path d="M476.743 413.784H36.7904C16.8623 413.784 0 396.922 0 376.994V134.79C0 114.862 16.8623 98 36.7904 98H475.21C495.138 98 512 114.862 512 134.79V376.994C512 396.922 496.671 413.784 476.743 413.784ZM36.7904 122.527C30.6587 122.527 24.5269 128.659 24.5269 134.79V376.994C24.5269 384.659 30.6587 389.257 36.7904 389.257H475.21C482.874 389.257 487.473 383.126 487.473 376.994V134.79C487.473 127.126 481.341 122.527 475.21 122.527C476.743 122.527 36.7904 122.527 36.7904 122.527ZM73.5808 340.204V171.581H122.635L171.689 232.898L220.743 171.581H269.796V340.204H220.743V243.629L171.689 304.946L122.635 243.629V340.204H73.5808ZM381.701 340.204L308.12 258.958H357.174V171.581H406.228V257.425H455.281L381.701 340.204Z" fill="black"/>
</svg>
