<svg width="512" height="512" viewBox="0 0 512 512" fill="none" xmlns="http://www.w3.org/2000/svg">
<g clip-path="url(#clip0_334_1010)">
<path d="M163.218 3.53887C166.381 1.04402 169.169 0.08711 171.758 0.00723716C177.564 0.00723716 183.306 2.867 185.452 4.29688C196.598 0.657184 199.137 5.64219 204.611 7.67346C216.757 5.10657 220.447 10.6945 226.278 16.5926L233.051 16.4579C251.369 27.2533 260.449 49.2387 263.677 60.543C266.903 49.2402 276.006 27.2548 294.326 16.4579L301.1 16.5926C306.923 10.6945 310.614 5.10657 322.761 7.67346C328.233 5.64219 330.781 0.657184 341.918 4.29688C348.872 2.09646 354.959 -3.72173 364.159 3.5373C371.906 0.54912 379.418 -0.48766 386.135 5.59364C396.507 4.24833 399.878 7.02508 402.43 10.2654C404.714 10.2184 419.472 7.92561 426.239 18.024C443.256 16.01 448.63 28.0301 442.541 39.2389L442.662 39.4272C446.094 44.7417 449.522 50.0505 441.49 60.1797C444.364 65.8914 442.583 72.087 435.811 79.5841C437.598 87.6121 434.085 93.2768 427.786 97.6917C428.964 108.678 417.711 115.066 414.35 117.342C413.061 123.743 410.371 129.783 397.517 133.124C395.398 142.665 387.673 144.312 380.193 146.314C404.917 160.689 426.12 179.599 425.976 225.991L429.603 232.451C457.953 249.691 483.458 305.106 443.574 350.149C440.968 364.248 436.599 374.374 432.709 385.582C426.89 430.743 388.916 451.89 378.901 454.391C364.223 465.57 348.591 476.178 327.439 483.609C307.498 504.176 263.532 512 263.212 512C241.491 512.013 219.888 504.174 199.948 483.609C178.794 476.178 163.163 465.57 148.487 454.391C138.47 451.89 100.495 430.743 94.6773 385.582C90.787 374.374 86.4175 364.248 83.813 350.149C43.9267 305.111 69.4328 249.698 97.7829 232.458L101.405 225.997C101.261 179.601 122.464 160.693 147.188 146.32C139.707 144.319 131.983 142.671 129.862 133.13C117.009 129.791 114.32 123.749 113.029 117.348C109.67 115.073 98.4156 108.684 99.5949 97.698C93.2944 93.2831 89.7815 87.6199 91.5685 79.5903C84.7981 72.0933 83.0159 65.8976 85.8897 60.1875C77.7646 49.9325 81.3651 44.6186 84.8404 39.2405C78.7481 28.0316 84.1247 16.0131 101.136 18.0256C107.906 7.92718 122.667 10.2216 124.944 10.2685C127.499 7.02665 130.869 4.2499 141.242 5.5952C147.959 -0.486094 155.471 0.552253 163.218 3.53887Z" fill="black"/>
<path d="M135.284 47.5065C183.89 72.5662 212.148 92.8382 227.629 110.103C219.702 141.879 178.343 143.329 163.22 142.438C166.317 140.997 168.901 139.269 169.817 136.618C166.022 133.921 152.568 136.333 143.174 131.057C146.782 130.308 148.471 129.58 150.157 126.917C141.284 124.087 131.724 121.647 126.102 116.958C129.135 116.996 131.968 117.638 135.931 114.889C127.982 110.606 119.5 107.211 112.91 100.663C117.02 100.562 121.45 100.622 122.739 99.1106C115.464 94.6033 109.325 89.5916 104.245 84.1086C109.995 84.8024 112.424 84.2057 113.815 83.2034C108.315 77.57 101.355 72.8136 98.0364 65.8725C102.306 67.3447 106.213 67.9085 109.029 65.7441C107.161 61.5281 99.1546 59.0411 94.5439 49.1885C99.0403 49.6255 103.808 50.1689 104.761 49.1885C102.675 40.6875 99.0951 35.9077 95.5839 30.9556C105.205 30.8131 119.782 30.9932 119.123 30.1803L113.173 24.1022C122.571 21.5713 132.188 24.5078 139.169 26.6879C142.303 24.2149 139.113 21.0874 135.288 17.894C143.276 18.9606 150.493 20.7961 157.017 23.3254C160.502 20.179 154.754 17.0311 151.973 13.8847C164.312 16.2245 169.54 19.515 174.735 22.8085C178.504 19.1955 174.951 16.1243 172.407 12.9795C181.712 16.425 186.504 20.8744 191.549 25.2658C193.259 22.9573 195.895 21.2643 192.712 15.6952C199.318 19.5024 204.294 23.9894 207.974 29.0167C212.062 26.4138 210.41 22.8555 210.432 19.5745C217.298 25.1593 221.655 31.1028 226.987 36.9053C228.062 36.1223 229.001 33.4708 229.833 29.2751C246.21 45.1635 269.353 85.1861 235.781 101.054C207.21 77.4901 173.087 60.3613 135.273 47.5127L135.284 47.5065Z" fill="#75A928"/>
<path d="M393.188 47.5065C344.588 72.5694 316.33 92.8352 300.85 110.103C308.778 141.879 350.135 143.329 365.257 142.438C362.161 140.997 359.577 139.269 358.662 136.618C362.457 133.921 375.912 136.333 385.304 131.057C381.696 130.308 380.009 129.58 378.32 126.917C387.196 124.087 396.755 121.647 402.376 116.958C399.343 116.996 396.51 117.638 392.547 114.889C400.497 110.606 408.979 107.211 415.569 100.663C411.458 100.562 407.028 100.622 405.74 99.1107C413.015 94.6033 419.154 89.5917 424.235 84.1087C418.482 84.8025 416.055 84.2058 414.664 83.2034C420.163 77.5701 427.124 72.8137 430.443 65.8726C426.172 67.3448 422.265 67.9086 419.449 65.7442C421.317 61.5281 429.325 59.0411 433.934 49.1886C429.439 49.6255 424.67 50.169 423.716 49.1886C425.807 40.6845 429.387 35.9046 432.899 30.9525C423.278 30.81 408.7 30.9901 409.36 30.1773L415.309 24.0975C405.911 21.5682 396.295 24.5047 389.313 26.6848C386.179 24.2119 389.368 21.0843 393.193 17.891C385.207 18.9559 377.988 20.793 371.466 23.3223C367.979 20.1759 373.729 17.028 376.51 13.8817C364.17 16.2215 358.943 19.5119 353.746 22.8055C349.977 19.1924 353.532 16.1212 356.075 12.9764C346.771 16.4219 341.978 20.8713 336.934 25.2628C335.222 22.9543 332.588 21.2613 335.769 15.6921C329.164 19.4994 324.189 23.9863 320.508 29.0136C316.421 26.4107 318.073 22.8509 318.051 19.5714C311.185 25.1563 306.828 31.0982 301.495 36.9023C300.421 36.1192 299.481 33.4677 298.65 29.2705C282.273 45.1605 259.13 85.183 292.702 101.051C321.257 77.4808 355.378 60.3551 393.194 47.5065H393.188Z" fill="#75A928"/>
<path d="M323.104 371.068C323.273 400.72 297.342 424.884 265.188 425.039C233.032 425.196 206.828 401.285 206.658 371.634C206.657 371.446 206.657 371.258 206.658 371.068C206.489 341.418 232.418 317.254 264.574 317.098C296.73 316.941 322.933 340.851 323.104 370.503V371.068Z" fill="#BC1142"/>
<path d="M231.189 217.698C255.313 233.505 259.662 269.332 240.902 297.72C222.141 326.109 187.376 336.311 163.251 320.505C139.127 304.698 134.779 268.872 153.538 240.484C172.299 212.095 207.064 201.893 231.189 217.698Z" fill="#BC1142"/>
<path d="M296.305 214.837C272.182 230.642 267.833 266.471 286.592 294.858C305.353 323.248 340.118 333.449 364.242 317.642C388.367 301.837 392.716 266.01 373.955 237.621C355.196 209.233 320.431 199.031 296.305 214.837Z" fill="#BC1142"/>
<path d="M110.616 243.54C136.663 236.558 119.41 351.295 98.2171 341.88C74.9052 323.131 67.3971 268.22 110.616 243.54Z" fill="#BC1142"/>
<path d="M411.618 242.11C385.568 235.129 402.824 349.871 424.017 340.457C447.329 321.705 454.837 266.789 411.618 242.11Z" fill="#BC1142"/>
<path d="M323.12 156.666C368.07 149.076 405.472 175.782 403.962 224.523C402.484 243.21 306.56 159.449 323.12 156.666Z" fill="#BC1142"/>
<path d="M198.928 155.236C153.976 147.645 116.576 174.357 118.086 223.095C119.565 241.781 215.49 158.019 198.928 155.236Z" fill="#BC1142"/>
<path d="M263.498 143.869C236.67 143.171 210.923 163.779 210.861 175.734C210.787 190.258 232.072 205.13 263.682 205.508C295.96 205.738 316.557 193.603 316.661 178.614C316.78 161.631 287.304 143.606 263.498 143.868V143.869Z" fill="#BC1142"/>
<path d="M265.131 441.716C288.521 440.695 319.906 449.25 319.969 460.599C320.357 471.619 291.505 496.517 263.58 496.036C234.66 497.284 206.302 472.347 206.673 463.703C206.24 451.03 241.886 441.135 265.131 441.716Z" fill="#BC1142"/>
<path d="M178.741 374.459C195.394 394.521 202.987 429.769 189.089 440.16C175.941 448.093 144.012 444.826 121.319 412.223C106.013 384.866 107.985 357.028 118.732 348.85C134.802 339.061 159.631 352.284 178.743 374.459H178.741Z" fill="#BC1142"/>
<path d="M348.197 368.099C330.178 389.203 320.146 427.695 333.289 440.093C345.857 449.725 379.595 448.378 404.515 413.799C422.61 390.575 416.547 351.789 406.211 341.491C390.857 329.615 368.813 344.814 348.197 368.093V368.099Z" fill="#BC1142"/>
</g>
<defs>
<clipPath id="clip0_334_1010">
<rect width="512" height="512" fill="white"/>
</clipPath>
</defs>
</svg>
