<svg width="512" height="512" viewBox="0 0 512 512" fill="none" xmlns="http://www.w3.org/2000/svg">
<path d="M117.109 168.803H414.159V197.705L510.5 342.216H1.5L117.109 168.803Z" fill="white"/>
<path d="M414.962 168H116.679L0 343.019H512L414.962 197.461V168ZM413.356 169.606V197.948L508.999 341.413H2.99982L117.538 169.606H413.356Z" fill="black"/>
<path d="M117.109 168.803H155.645L40.0363 342.216H1.5L59.3044 255.509L1.5 168.803H40.0363L78.5725 226.607L117.109 168.803Z" fill="black" stroke="black"/>
<path d="M49.6704 342.216H88.2067L165.279 226.607V342.216H203.815V168.803H165.279L49.6704 342.216Z" fill="black" stroke="black"/>
<path d="M211.844 342.216H250.38V226.607L288.916 284.412L327.453 226.607V342.216H365.989V168.803H317.818L288.916 226.607L250.38 168.803H211.844V342.216Z" fill="black" stroke="black"/>
<path d="M375.623 342.216H510.5L484.809 303.68H414.159V168.803H375.623V342.216Z" fill="black" stroke="black"/>
</svg>
