<svg fill="#000000" viewBox="-1.6 -1.6 19.20 19.20" xmlns="http://www.w3.org/2000/svg"><g id="SVGRepo_bgCarrier" stroke-width="0"><path transform="translate(-1.6, -1.6), scale(1.2)" fill="#7ed0ec" d="M9.166.33a2.25 2.25 0 00-2.332 0l-5.25 3.182A2.25 2.25 0 00.5 5.436v5.128a2.25 2.25 0 001.084 1.924l5.25 3.182a2.25 2.25 0 002.332 0l5.25-3.182a2.25 2.25 0 001.084-1.924V5.436a2.25 2.25 0 00-1.084-1.924L9.166.33z" strokewidth="0"></path></g><g id="SVGRepo_tracerCarrier" stroke-linecap="round" stroke-linejoin="round"></g><g id="SVGRepo_iconCarrier"> <path d="M11.874 9A4.005 4.005 0 0 1 8 12a4.005 4.005 0 0 1-3.874-3h7.748zM0 8c0-4.418 3.59-8 8-8 4.418 0 8 3.59 8 8 0 4.418-3.59 8-8 8-4.418 0-8-3.59-8-8zm2 0c0 3.307 2.686 6 6 6 3.307 0 6-2.686 6-6 0-3.307-2.686-6-6-6-3.307 0-6 2.686-6 6zm3-3h2v2H5V5zm4 0h2v2H9V5z" fill-rule="evenodd"></path> </g></svg>